<svg width="42" height="42" viewBox="0 0 42 42" fill="none" xmlns="http://www.w3.org/2000/svg">
<path d="M16.3996 24.3462C16.2023 24.1431 15.8835 24.1431 15.6862 24.3462L9.97923 30.2228C9.78199 30.4259 9.78199 30.7542 9.97923 30.9572C10.0776 31.0585 10.2067 31.1094 10.3359 31.1094C10.465 31.1094 10.5942 31.0585 10.6925 30.9572L16.3996 25.0806C16.5968 24.8775 16.5968 24.5487 16.3996 24.3462Z" fill="#27AE60"/>
<path d="M17.1128 25.8152L11.4057 31.6918C11.2085 31.8949 11.2085 32.2232 11.4057 32.4262C11.5041 32.5275 11.6333 32.5784 11.7624 32.5784C11.8915 32.5784 12.0207 32.5275 12.1191 32.4262L17.8261 26.5496C18.0233 26.3465 18.0233 26.0182 17.8261 25.8152C17.6288 25.6121 17.31 25.6121 17.1128 25.8152Z" fill="#27AE60"/>
<path d="M26.3885 23.238L23.7158 20.4861L29.8401 14.1811H31.0578C31.192 14.1811 31.3202 14.1265 31.4145 14.0289L33.555 11.825C33.6498 11.7274 33.7028 11.5955 33.7028 11.4578C33.7028 11.3202 33.6498 11.1877 33.555 11.0906L30.7012 8.15232C30.5039 7.94923 30.1851 7.94923 29.9879 8.15232L27.8474 10.3556C27.7526 10.4533 27.6996 10.5852 27.6996 10.7229V11.9767L21.5759 18.2823C20.9035 17.5894 19.4602 16.1034 18.9038 15.5305C19.5439 13.4965 19.0299 11.2527 17.5498 9.72975C16.1373 8.2749 14.0604 7.71549 12.1298 8.2697C11.9573 8.31956 11.8231 8.4598 11.7777 8.63796C11.7323 8.81612 11.7822 9.00674 11.9088 9.13763L13.8021 11.087L13.2144 13.3453L11.02 13.951L9.1272 12.0022C9.00058 11.8713 8.81595 11.8198 8.64291 11.8671C8.46938 11.9139 8.33317 12.052 8.28525 12.2302C7.74648 14.2169 8.28979 16.3548 9.70229 17.8102C11.1819 19.3336 13.3612 19.8623 15.3362 19.2037L18.0083 21.9555L17.346 22.6375C16.9439 22.4396 16.502 22.3316 16.0429 22.3316C15.2343 22.3316 14.4745 22.6557 13.903 23.2447L8.90826 28.3858C7.72882 29.6012 7.72882 31.5781 8.90826 32.7935L9.62208 33.5279C10.1936 34.1169 10.9539 34.441 11.7625 34.441C12.5712 34.441 13.3309 34.1169 13.9025 33.5279L18.8962 28.3858C19.4682 27.7978 19.783 27.0151 19.783 26.183C19.783 25.7103 19.6781 25.2553 19.4859 24.8414L20.1483 24.1594L22.8209 26.9112C22.1808 28.9452 22.6953 31.1885 24.1749 32.7119C25.2272 33.7954 26.6468 34.3823 28.1007 34.3823C28.5991 34.3823 29.102 34.3133 29.5949 34.1715C29.7679 34.1216 29.9016 33.9819 29.947 33.8032C29.9929 33.6245 29.9425 33.4344 29.8159 33.3041L27.9226 31.3547L28.5103 29.0958L30.7042 28.4907L32.5975 30.4401C32.7241 30.5709 32.9087 30.6229 33.0823 30.5751C33.2558 30.5284 33.392 30.3907 33.4399 30.2126C33.9782 28.2258 33.4349 26.0874 32.0219 24.6326C30.5428 23.1081 28.363 22.5783 26.3885 23.238ZM15.824 18.2366C15.6827 18.0906 15.4693 18.0444 15.2832 18.1202C13.6028 18.7986 11.6914 18.3888 10.4156 17.0757C9.47932 16.1112 9.00966 14.7794 9.09996 13.4435L10.5125 14.8978C10.6396 15.0293 10.8262 15.0807 10.9998 15.0324L13.7567 14.2714C13.9307 14.2237 14.0669 14.0834 14.1133 13.9042L14.8519 11.0667C14.8988 10.8875 14.8489 10.6964 14.7212 10.565L13.3082 9.10958C14.6037 9.01401 15.8997 9.49966 16.8364 10.4642C18.1117 11.7767 18.5103 13.7442 17.8555 15.4666C17.7263 15.7876 17.7263 15.7876 19.5913 17.7078L20.8626 19.0167L18.7221 21.2206L15.824 18.2366ZM28.5607 12.5595C28.6556 12.4618 28.7085 12.3299 28.7085 12.1923V10.9384L30.3445 9.2545L32.485 11.4578L30.849 13.1423H29.6312C29.497 13.1423 29.3689 13.1968 29.2746 13.2944L18.8972 23.9792L18.1834 23.2447L28.5607 12.5595ZM18.1829 27.6514L13.1887 32.7935C12.4269 33.5788 11.0976 33.5788 10.3354 32.7935L9.62158 32.059C8.83461 31.2488 8.83461 29.93 9.62158 29.1202L14.6163 23.9792C14.9972 23.5865 15.5036 23.3704 16.0429 23.3704C16.5822 23.3704 17.0887 23.5865 17.4696 23.9792L18.1829 24.7136C18.5642 25.1063 18.7741 25.6283 18.7741 26.183C18.7741 26.7377 18.5642 27.2592 18.1829 27.6514ZM32.6247 28.9987L31.2117 27.5438C31.0846 27.4124 30.8999 27.36 30.7244 27.4093L27.968 28.1697C27.794 28.218 27.6582 28.3577 27.6113 28.5369L26.8728 31.375C26.8259 31.5542 26.8758 31.7453 27.0035 31.8767L28.417 33.3321C27.117 33.4256 25.825 32.942 24.8882 31.9775C23.6134 30.665 23.2149 28.6974 23.8732 26.9657C23.9464 26.7736 23.902 26.5554 23.7597 26.4095L20.8616 23.4255L23.0025 21.2206L25.9007 24.2046C26.0429 24.351 26.2543 24.3973 26.4415 24.3209C28.1229 23.6431 30.0343 24.0529 31.3086 25.3665C32.2454 26.3305 32.715 27.6623 32.6247 28.9987Z" fill="#27AE60"/>
<circle cx="21" cy="21" r="20" stroke="#27AE60" stroke-width="2"/>
</svg>
