<svg width="42" height="42" viewBox="0 0 42 42" fill="none" xmlns="http://www.w3.org/2000/svg">
<circle cx="21" cy="21" r="20" stroke="#27AE60" stroke-width="2"/>
<path d="M34.2937 15.1692L32.7578 16.056L32.3127 15.2851L30.7767 16.1719L30.4429 15.5937L27.872 15.2793L26.5921 16.0182L24.1442 11.7782C23.7761 11.1407 22.9597 10.9202 22.3246 11.2869L21.9406 11.5086L21.718 11.1232C21.35 10.4856 20.5336 10.2652 19.8984 10.6319L9.14674 16.8394C8.64678 17.1281 8.41111 17.6953 8.51051 18.2346L5.36793 20.049L6.70318 22.3617L9.7751 20.5881L10.7062 22.2009C10.3525 22.6178 10.2752 23.2278 10.5649 23.7297L12.1227 26.4279L9.81876 27.758L13.3794 33.9253L15.6834 32.5951L15.9059 32.9805C16.274 33.6181 17.0904 33.8385 17.7255 33.4718L29.2452 26.8209C29.7451 26.5323 29.9808 25.965 29.8814 25.4257L30.3361 25.1632C30.836 24.8746 31.0717 24.3073 30.9723 23.768L32.3232 22.9881L33.336 20.6046L33.0021 20.0264L34.5381 19.1396L34.093 18.3687L35.629 17.4819L34.2937 15.1692ZM20.9501 11.5666L21.1726 11.952L19.6366 12.8388L21.417 15.9224L12.9692 20.7998L10.7438 16.9452L20.3435 11.4028C20.5551 11.2807 20.8272 11.3538 20.9501 11.5666ZM9.59182 17.6103L9.97581 17.3886L12.2012 21.2431L11.4332 21.6865L9.43037 18.2175C9.30753 18.0047 9.38024 17.7325 9.59182 17.6103ZM7.02608 21.1474L6.581 20.3765L8.88493 19.0463L9.33002 19.8172L7.02608 21.1474ZM12.5678 27.1988L13.1366 28.184C12.8331 28.1824 12.526 28.2508 12.2449 28.4131C11.9638 28.5753 11.751 28.8071 11.6006 29.0708L11.0318 28.0855L12.5678 27.1988ZM13.903 29.5115C14.1485 29.9366 14.0037 30.4812 13.5801 30.7258C13.1566 30.9703 12.6125 30.8234 12.3671 30.3983C12.1216 29.9731 12.2664 29.4285 12.69 29.184C13.1135 28.9394 13.6576 29.0863 13.903 29.5115ZM13.7023 32.711L13.1335 31.7258C13.437 31.7273 13.7441 31.659 14.0252 31.4967C14.3063 31.3344 14.5191 31.1026 14.6695 30.839L15.2383 31.8242L13.7023 32.711ZM28.9615 25.4429C29.0844 25.6556 29.0117 25.9279 28.8001 26.05L19.2004 31.5924L14.0819 22.727L13.3139 23.1704L18.4324 32.0358L17.2804 32.7009C17.0688 32.8231 16.7967 32.7499 16.6739 32.5372L11.3329 23.2863C11.21 23.0735 11.2828 22.8013 11.4943 22.6791L21.0941 17.1367L26.4351 26.3876L27.203 25.9442L21.8621 16.6933L23.014 16.0282C23.2256 15.9061 23.4977 15.9792 23.6206 16.192L28.9615 25.4429ZM30.0524 23.7852C30.1753 23.9979 30.1025 24.2702 29.891 24.3923L29.507 24.614L24.3885 15.7486C24.0205 15.1111 23.2041 14.8907 22.5689 15.2573L22.185 15.479L20.8497 13.1663L22.7697 12.0578C22.9812 11.9357 23.2533 12.0088 23.3762 12.2216L30.0524 23.7852ZM32.3454 20.6625L31.622 22.3651L30.5979 22.9563L27.0372 16.7891L28.0613 16.1978L29.8975 16.4225L32.3454 20.6625ZM33.325 18.8121L32.5571 19.2555L31.2218 16.9428L31.9898 16.4994L33.325 18.8121ZM34.4159 17.1544L33.6479 17.5978L33.2029 16.8269L33.9708 16.3835L34.4159 17.1544Z" fill="#27AE60"/>
</svg>
