<svg width="32" height="32" viewBox="0 0 32 32" fill="none" xmlns="http://www.w3.org/2000/svg">
<circle cx="16" cy="16" r="16" fill="#27AE60"/>
<path d="M16 7C12.6947 7 10 9.60045 10 12.7901C10 16.3088 13.6195 21.7273 15.236 23.9717C15.6167 24.5003 16.3822 24.4992 16.7617 23.9699C18.3772 21.7172 22 16.2744 22 12.7698C22 9.58013 19.3053 7 16 7ZM16 15.9594C14.1474 15.9594 12.6316 14.4966 12.6316 12.7088C12.6316 10.921 14.1474 9.45824 16 9.45824C17.8526 9.45824 19.3684 10.921 19.3684 12.7088C19.3684 14.4966 17.8526 15.9594 16 15.9594Z" fill="white"/>
</svg>
