<svg width="185" height="67" viewBox="0 0 185 67" fill="none" xmlns="http://www.w3.org/2000/svg">
<path d="M34.0986 67C52.6002 67 67.5986 52.0015 67.5986 33.5C67.5986 14.9985 52.6002 0 34.0986 0C15.5971 0 0.598633 14.9985 0.598633 33.5C0.598633 52.0015 15.5971 67 34.0986 67Z" fill="#FF0000"/>
<path fill-rule="evenodd" clip-rule="evenodd" d="M32.3635 36.0631L38.8383 49.6662L27.336 49.7423L21.2928 32.7893H25.457C26.5996 32.7893 27.7676 32.3832 28.9356 31.5457C30.1036 30.7082 30.8654 29.3124 31.1955 27.3328C31.3478 26.6984 31.424 26.0639 31.424 25.5056C31.424 22.79 30.0529 21.4196 27.336 21.4196H23.2733L18.2965 49.6662H7.5813L13.5483 15.7347H32.1096C35.1566 15.7347 37.6195 16.3692 39.4223 17.6635C41.2505 18.9578 42.1646 20.9881 42.1646 23.8052C42.1646 24.5666 42.0885 25.4041 41.9361 26.3431C41.5552 28.6525 40.8697 30.5052 39.8794 31.8756C38.8891 33.2461 37.8735 34.2105 36.807 34.7688C35.7406 35.3525 34.7503 35.6825 33.8362 35.8347C32.9475 35.9616 32.4397 36.0378 32.3635 36.0631ZM47.5477 39.7685H62.0209C62.1224 39.7685 62.3256 38.9817 62.6303 37.4336C62.9604 35.8855 63.1127 34.3628 63.1127 32.84C63.1127 30.4544 62.6303 28.6779 61.6654 27.5359C60.6751 26.3685 59.4817 25.6325 58.0852 25.2772C56.6886 24.9472 54.8097 24.7696 52.3974 24.7696C44.6784 24.9472 40.0825 29.3631 38.6352 38.0427C38.4321 39.1086 38.3305 40.276 38.3305 41.5196C38.3305 47.0775 41.2252 50.0215 47.0144 50.326C47.1922 50.326 47.4715 50.326 47.827 50.3514C48.1824 50.3768 48.4871 50.3768 48.6903 50.3768C51.1787 50.3768 53.3369 50.1484 55.1905 49.7169C57.0441 49.2855 58.3137 48.9302 59.05 48.6256L61.1322 42.7885C60.472 43.22 59.2786 43.7529 57.5773 44.4128C55.8761 45.0472 53.8956 45.4279 51.5849 45.5041C48.7157 45.5041 47.2937 44.159 47.2937 41.4942C47.3191 40.3522 47.3953 39.7685 47.5477 39.7685ZM53.5909 30.0738C55.8761 30.2514 57.0187 31.4188 57.0187 33.576C56.9425 34.8703 56.8156 35.5302 56.6378 35.5302H48.284C48.3348 34.6166 48.7157 33.4745 49.4266 32.1294C50.163 30.759 51.5341 30.0738 53.5909 30.0738Z" fill="white"/>
<path d="M79.9982 32.2059C79.9982 32.7642 80.3536 33.1703 81.0392 33.3733C81.7248 33.5764 82.9436 33.8048 84.6448 34.0078C86.3461 34.2108 87.6664 34.4646 88.5551 34.7184C91.5259 35.632 93.024 37.4086 93.024 40.0733C93.024 40.3525 92.9987 40.7839 92.9225 41.3423C92.1607 47.1033 88.225 50.1487 81.0646 50.4786C80.6837 50.504 80.1251 50.5294 79.3888 50.5294C76.9766 50.5294 74.9198 50.3264 73.2186 49.8949C71.492 49.4889 70.6287 49.1843 70.6287 49.0574V42.8904C71.1365 43.3472 72.0506 43.9055 73.4217 44.6161C74.7675 45.3014 76.4433 45.682 78.4493 45.7328C80.5822 45.7328 82.1564 45.5044 83.1467 45.0476C84.1624 44.5908 84.7464 43.8294 84.8987 42.7381C84.8987 41.7737 84.5433 41.0631 83.8323 40.657C83.1213 40.251 82.2072 39.9464 81.09 39.8195C79.9728 39.6926 78.627 39.515 77.0781 39.3373C75.4785 39.0582 74.2343 38.5506 73.3456 37.8654C72.4569 37.1801 72.0252 36.0889 72.0252 34.5661C72.0252 33.7033 72.2029 32.6627 72.5584 31.4192C73.2186 29.2873 74.8437 27.5362 77.4336 26.1911C78.9317 25.4551 80.9123 25.0237 83.426 24.8714C83.8831 24.8461 84.5179 24.8207 85.3812 24.8207C87.5902 24.8207 89.393 24.973 90.7642 25.3029C92.1353 25.6328 93.0748 25.8866 93.5573 26.0896L94.0905 31.0131C94.0905 31.0131 93.6588 30.8608 92.8463 30.5563C92.0338 30.2517 91.0181 29.9726 89.7993 29.7188C88.5805 29.465 87.1586 29.3381 85.5335 29.3381C82.0041 29.3381 80.1505 30.3025 79.9982 32.2059Z" fill="black"/>
<path d="M101.86 29.4395H95.3599L96.0962 25.3535H116.816L116.079 29.4395H109.579L105.999 49.7933H98.2799L101.86 29.4395Z" fill="black"/>
<path d="M116.054 46.1895L114.048 49.7933H108.513L121.945 25.3535H128.928L133.904 49.7933H125.728L124.992 46.1895H116.054ZM124.078 41.9259L122.605 34.4137L118.415 41.9259H124.078Z" fill="black"/>
<path d="M154.015 39.9972L158.687 49.7934L150.384 49.8442L146.016 37.6116H149.012C149.85 37.6116 150.688 37.307 151.526 36.7233C152.364 36.1142 152.923 35.1245 153.177 33.6779C153.278 33.1957 153.329 32.7642 153.329 32.3582C153.329 30.404 152.364 29.4142 150.384 29.4142H147.464L143.883 49.768H136.164L140.481 25.3282H153.862C156.071 25.3282 157.823 25.7851 159.144 26.7241C160.464 27.6631 161.124 29.1351 161.124 31.1654C161.124 31.6983 161.073 32.3074 160.972 32.9926C160.693 34.6676 160.185 35.9873 159.499 36.9771C158.814 37.9669 158.052 38.6521 157.265 39.0582C156.503 39.4642 155.792 39.718 155.132 39.8195C154.446 39.921 154.091 39.9718 154.015 39.9972Z" fill="black"/>
<path d="M169.504 29.4395H163.003L163.74 25.3535H184.459L183.723 29.4395H177.223L173.642 49.7933H165.923L169.504 29.4395Z" fill="black"/>
</svg>
