<svg width="70" height="70" viewBox="0 0 70 70" fill="none" xmlns="http://www.w3.org/2000/svg">
<path d="M35 1.46689C53.5121 1.46689 68.5331 16.5172 68.5331 35C68.5331 53.4828 53.4828 68.5331 35 68.5331C16.4878 68.5331 1.46689 53.4828 1.46689 35C1.46689 16.5172 16.5172 1.46689 35 1.46689ZM35 0C15.6664 0 0 15.6664 0 35C0 54.3336 15.6664 70 35 70C54.3336 70 70 54.3336 70 35C70.0293 15.6664 54.3336 0 35 0Z" fill="#E30613"/>
<path d="M39.8995 32.5359H20.7126C20.2432 32.5359 19.8618 32.9173 19.8618 33.3867C19.8618 33.8561 20.2432 34.2375 20.7126 34.2375H39.8995C40.3689 34.2375 40.7503 33.8561 40.7503 33.3867C40.7503 32.9173 40.3689 32.5359 39.8995 32.5359Z" fill="#E30613"/>
<path d="M39.8995 37.9341H20.7126C20.2432 37.9341 19.8618 38.3155 19.8618 38.7849C19.8618 39.2543 20.2432 39.6357 20.7126 39.6357H39.8995C40.3689 39.6357 40.7503 39.2543 40.7503 38.7849C40.7503 38.3155 40.3689 37.9341 39.8995 37.9341Z" fill="#E30613"/>
<path d="M39.8995 43.3616H20.7126C20.2432 43.3616 19.8618 43.743 19.8618 44.2124C19.8618 44.6818 20.2432 45.0632 20.7126 45.0632H39.8995C40.3689 45.0632 40.7503 44.6818 40.7503 44.2124C40.7503 43.743 40.3689 43.3616 39.8995 43.3616Z" fill="#E30613"/>
<path d="M41.8358 14.1411C33.3572 14.1411 26.4921 19.5979 26.4921 26.287C26.4921 26.375 26.5214 26.463 26.5214 26.5803H17.6321C16.0772 26.5803 14.8157 27.8419 14.8157 29.3968V48.2609C14.8157 49.8158 16.0772 51.0774 17.6321 51.0774H18.6002L24.0864 56.1235C24.2331 56.2702 24.4678 56.3582 24.6732 56.3582C24.8198 56.3582 24.9665 56.3288 25.0839 56.2408C25.4066 56.0648 25.5826 55.7128 25.5239 55.3314L24.7318 51.048H43.0679C44.6228 51.048 45.8844 49.7865 45.8844 48.2316V37.9927C46.5298 37.846 47.1752 37.6993 47.7913 37.494C48.7595 38.5501 51.2239 40.9852 53.7176 40.9852C54.0109 40.9852 54.275 40.8385 54.4217 40.6038C54.5684 40.3691 54.5977 40.0464 54.4803 39.7823C53.8056 38.3448 52.7494 35.0003 53.7469 34.0321C56.0059 31.8611 57.2675 29.1327 57.2675 26.3163C57.1794 19.5686 50.3144 14.1411 41.8358 14.1411ZM44.1241 48.2316C44.1241 48.8477 43.6254 49.3465 43.0093 49.3465H23.6463C23.3823 49.3465 23.1476 49.4638 23.0009 49.6398C22.8542 49.8452 22.7662 50.0799 22.8249 50.3439L23.3236 53.131L19.451 49.5811C19.3043 49.4344 19.099 49.3465 18.8643 49.3465H17.5734C16.9573 49.3465 16.4586 48.8477 16.4586 48.2316V29.3674C16.4586 28.7513 16.9573 28.2526 17.5734 28.2526H42.9799C43.596 28.2526 44.0948 28.7513 44.0948 29.3674V48.2316H44.1241ZM52.4854 32.7999C51.0185 34.2668 51.6639 37.1126 52.2507 38.9315C50.8718 38.3155 49.5223 36.9659 48.8182 36.2031C48.8182 36.1738 48.7888 36.1151 48.7595 36.0858C48.5541 35.7044 48.114 35.5284 47.7033 35.675C47.0579 35.9098 46.4125 36.0858 45.767 36.2325V29.3381C45.767 27.7832 44.5055 26.5216 42.9506 26.5216H28.135C28.135 26.4336 28.1057 26.3456 28.1057 26.2283C28.1057 20.4781 34.2373 15.784 41.7771 15.784C49.3169 15.784 55.4485 20.4781 55.4485 26.2283C55.5072 28.6633 54.451 30.893 52.4854 32.7999Z" fill="#E30613"/>
</svg>
