<svg width="70" height="70" viewBox="0 0 70 70" fill="none" xmlns="http://www.w3.org/2000/svg">
<path d="M35 1.46689C53.5121 1.46689 68.5331 16.5172 68.5331 35C68.5331 53.5122 53.4828 68.5331 35 68.5331C16.4878 68.5331 1.46689 53.4828 1.46689 35C1.46689 16.5172 16.5172 1.46689 35 1.46689ZM35 0C15.6664 0 0 15.6664 0 35C0 54.3336 15.6664 70 35 70C54.3336 70 70 54.3336 70 35C70.0293 15.6957 54.3336 0 35 0Z" fill="#E30613"/>
<path d="M47.4391 52.1625H21.0351V20.6537H43.7719V18.4827H20.5657C19.6269 18.4827 18.8641 19.2455 18.8641 20.1843V52.6319C18.8641 53.6 19.6269 54.3335 20.5657 54.3335H47.9379C48.8767 54.3335 49.6395 53.5707 49.6395 52.6319V39.4299C48.8767 39.4299 48.0846 39.1952 47.4391 38.6964V52.1625Z" fill="#E30613"/>
<path d="M53.5414 17.4266C53.5414 16.9866 53.3654 16.5172 53.0133 16.1944C52.6319 15.8717 52.2506 15.6664 51.7811 15.6664H47.4978C47.0578 15.6664 46.5883 15.8424 46.2656 16.1944C45.9429 16.5172 45.7375 16.9572 45.7375 17.4266V33.2984C45.7375 33.7091 45.9136 34.1492 46.1776 34.4426L48.3486 36.8776C48.6713 37.2297 49.1701 37.4937 49.6395 37.4937C50.0795 37.4937 50.5489 37.2883 50.8717 36.9656C50.901 36.9363 50.901 36.9363 50.9597 36.8776L53.1307 34.4426C53.4241 34.1198 53.5708 33.7091 53.5708 33.2984L53.5414 17.4266ZM51.3411 17.896V19.803H47.9086V17.896H51.3411ZM51.3411 21.9447V29.8952H47.9086V21.9447H51.3411ZM49.6395 35.0587L47.9379 33.093V32.0662H51.3704V33.1224L49.6395 35.0587Z" fill="#E30613"/>
<path d="M42.0998 25.4945H31.6848C31.0688 25.4945 30.5994 25.9933 30.5994 26.58C30.5994 27.1961 31.0981 27.6655 31.6848 27.6655H42.0998C42.7159 27.6655 43.1853 27.1668 43.1853 26.58C43.2146 25.9933 42.7159 25.4945 42.0998 25.4945Z" fill="#E30613"/>
<path d="M42.0998 32.0663H31.6848C31.0688 32.0663 30.5994 32.565 30.5994 33.1518C30.5994 33.7679 31.0981 34.2373 31.6848 34.2373H42.0998C42.7159 34.2373 43.1853 33.7385 43.1853 33.1518C43.2146 32.5357 42.7159 32.0663 42.0998 32.0663Z" fill="#E30613"/>
<path d="M42.0998 38.6085H31.6848C31.0688 38.6085 30.5994 39.1072 30.5994 39.694C30.5994 40.2808 31.0981 40.7795 31.6848 40.7795H42.0998C42.7159 40.7795 43.1853 40.2808 43.1853 39.694C43.1853 39.1072 42.7159 38.6085 42.0998 38.6085Z" fill="#E30613"/>
<path d="M42.0998 45.1798H31.6848C31.0688 45.1798 30.5994 45.6785 30.5994 46.2653C30.5994 46.8814 31.0981 47.3508 31.6848 47.3508H42.0998C42.7159 47.3508 43.1853 46.852 43.1853 46.2653C43.2146 45.6492 42.7159 45.1798 42.0998 45.1798Z" fill="#E30613"/>
<path d="M27.3136 25.4945H26.3748C25.7587 25.4945 25.2893 25.9933 25.2893 26.58C25.2893 27.1961 25.788 27.6655 26.3748 27.6655H27.3136C27.9297 27.6655 28.3991 27.1668 28.3991 26.58C28.4284 25.9933 27.9297 25.4945 27.3136 25.4945Z" fill="#E30613"/>
<path d="M27.3136 32.0663H26.3748C25.7587 32.0663 25.2893 32.565 25.2893 33.1518C25.2893 33.7679 25.788 34.2373 26.3748 34.2373H27.3136C27.9297 34.2373 28.3991 33.7385 28.3991 33.1518C28.4284 32.5357 27.9297 32.0663 27.3136 32.0663Z" fill="#E30613"/>
<path d="M27.3136 38.6085H26.3748C25.7587 38.6085 25.2893 39.1072 25.2893 39.694C25.2893 40.2808 25.788 40.7795 26.3748 40.7795H27.3136C27.9297 40.7795 28.3991 40.2808 28.3991 39.694C28.3991 39.1072 27.9297 38.6085 27.3136 38.6085Z" fill="#E30613"/>
<path d="M27.3136 45.1798H26.3748C25.7587 45.1798 25.2893 45.6785 25.2893 46.2653C25.2893 46.8814 25.788 47.3508 26.3748 47.3508H27.3136C27.9297 47.3508 28.3991 46.852 28.3991 46.2653C28.4284 45.6492 27.9297 45.1798 27.3136 45.1798Z" fill="#E30613"/>
</svg>
