<svg width="70" height="70" viewBox="0 0 70 70" fill="none" xmlns="http://www.w3.org/2000/svg">
<path d="M35 1.46689C53.5121 1.46689 68.5331 16.5172 68.5331 35C68.5331 53.5121 53.4828 68.5331 35 68.5331C16.4878 68.5331 1.46689 53.4828 1.46689 35C1.46689 16.5172 16.5172 1.46689 35 1.46689ZM35 0C15.6664 0 0 15.6664 0 35C0 54.3336 15.6664 70 35 70C54.3336 70 70 54.3336 70 35C70.0293 15.6664 54.3336 0 35 0Z" fill="#E30613"/>
<path d="M51.7417 35.4571C52.15 35.3987 52.5584 35.6612 52.6167 36.0695L55.2709 51.0612C55.3584 51.4696 55.0667 51.8779 54.6584 51.9362L49.3792 52.8696C48.9709 52.9279 48.5625 52.6654 48.5042 52.2571L45.85 37.2654C45.7625 36.8571 46.0542 36.4488 46.4625 36.3904L51.7417 35.4571ZM51.2459 37.0904L47.4542 37.7613L49.8459 51.2653L53.6375 50.5946L51.2459 37.0904Z" fill="#E30613"/>
<path fill-rule="evenodd" clip-rule="evenodd" d="M52.2666 38.4611L52.5291 39.9486L47.2499 40.8819L46.9874 39.3944L52.2666 38.4611Z" fill="#E30613"/>
<path d="M28.525 35.4571C28.1166 35.3987 27.7083 35.6612 27.65 36.0695L24.9958 51.0612C24.9083 51.4696 25.2 51.8779 25.6083 51.9362L30.8875 52.8696C31.2958 52.9279 31.7041 52.6654 31.7625 52.2571L34.4166 37.2654C34.475 36.8571 34.2125 36.4488 33.8041 36.3904L28.525 35.4571ZM29.0208 37.0904L32.8125 37.7613L30.4208 51.2653L26.6291 50.5946L29.0208 37.0904Z" fill="#E30613"/>
<path fill-rule="evenodd" clip-rule="evenodd" d="M28 38.4611L27.7375 39.9486L33.0167 40.8819L33.2792 39.3944L28 38.4611Z" fill="#E30613"/>
<path d="M40.1625 31.2861C36.6333 31.2569 33.3958 33.2985 31.8791 36.5068C31.7041 36.886 31.85 37.3235 32.2291 37.5277C32.6083 37.7319 33.0458 37.5569 33.25 37.1777C34.5041 34.4944 37.1875 32.8027 40.1625 32.8319C43.1083 32.8611 45.7916 34.5819 47.0166 37.2652C47.1916 37.6444 47.6291 37.8194 48.0083 37.6444C48.3875 37.4694 48.5625 37.0319 48.3875 36.6527C46.9291 33.3861 43.7208 31.3152 40.1625 31.2861Z" fill="#E30613"/>
<path d="M41.6499 12.3279C41.2416 12.3279 40.8916 12.6778 40.8916 13.0862V16.1195C40.8916 16.5278 41.2416 16.8779 41.6499 16.8779C42.2916 16.8779 42.7874 17.3737 42.7874 18.0153C42.7874 18.657 42.2916 19.1529 41.6499 19.1529C41.2416 19.1529 40.8916 19.5028 40.8916 19.9111V22.1862C40.8916 22.5946 41.2416 22.9445 41.6499 22.9445C42.2916 22.9445 42.7874 23.4404 42.7874 24.082C42.7874 24.7237 42.2916 25.2195 41.6499 25.2195H40.1332C38.0624 25.2195 36.3416 26.9112 36.3416 29.0112C36.3416 31.0821 38.0332 32.8028 40.1332 32.8028C40.5416 32.8028 40.8916 32.482 40.8916 32.0445C40.8916 31.6362 40.5707 31.2862 40.1332 31.2862C40.1332 31.2862 40.1332 31.2862 40.1041 31.2862C38.8499 31.2862 37.8291 30.2654 37.8291 29.0112C37.8291 27.7571 38.8499 26.7362 40.1041 26.7362H41.6207C43.0791 26.7362 44.2749 25.5404 44.2749 24.082C44.2749 22.9154 43.4291 22.0987 42.3791 21.7487V20.3487C43.4291 19.9987 44.2749 19.182 44.2749 18.0153C44.2749 16.8487 43.4291 16.032 42.3791 15.682V13.8445H44.3916C45.4999 13.8445 46.4332 14.6321 46.6374 15.7112L50.3416 36.332C50.4291 36.7403 50.8082 37.0029 51.2166 36.9446C51.6249 36.8571 51.8874 36.4778 51.8291 36.0695L48.1249 15.4486C47.8041 13.6403 46.2291 12.3279 44.3916 12.3279H41.6499V12.3279Z" fill="#E30613"/>
<path d="M40.8917 29.011C40.8917 29.4194 40.5417 29.7693 40.1333 29.7693C39.725 29.7693 39.375 29.4194 39.375 29.011C39.375 28.6027 39.725 28.2527 40.1333 28.2527C40.5417 28.2527 40.8917 28.5735 40.8917 29.011Z" fill="#E30613"/>
<path fill-rule="evenodd" clip-rule="evenodd" d="M35.8458 12.3279C34.0083 12.3279 32.4333 13.6403 32.1125 15.4486L28.4083 36.0695L29.8958 36.332L33.6 15.7112C33.8042 14.6321 34.7375 13.8445 35.8458 13.8445H37.8583V15.682C36.8083 16.032 35.9625 16.8487 35.9625 18.0153C35.9625 19.182 36.8083 19.9987 37.8583 20.3487V21.7487C36.8083 22.0987 35.9625 22.9154 35.9625 24.082C35.9625 25.5404 37.1583 26.7362 38.6167 26.7362H40.1333H40.8917V25.2195H40.1333H38.6167C37.975 25.2195 37.4791 24.7237 37.4791 24.082C37.4791 23.4404 37.975 22.9445 38.6167 22.9445H39.375V19.1529H38.6167C37.975 19.1529 37.4791 18.657 37.4791 18.0153C37.4791 17.3737 37.975 16.8779 38.6167 16.8779H39.375V12.3279H35.8458Z" fill="#E30613"/>
<path fill-rule="evenodd" clip-rule="evenodd" d="M9.0708 42.6321V44.1488H15.1375C17.2375 44.1488 18.9291 45.8404 18.9291 47.9404V53.2488C18.9291 56.1655 21.3208 58.5571 24.2375 58.5571H24.2666H24.2958C27.125 58.4404 29.3125 56.0488 29.1958 53.2196V51.7321H27.6791V53.2779V53.3071C27.7666 55.2904 26.25 56.9529 24.2666 57.0404C22.1666 57.0404 20.5041 55.3488 20.5041 53.2488V47.9404C20.5041 45.0238 18.1125 42.6321 15.1958 42.6321H9.0708Z" fill="#E30613"/>
</svg>
