<svg width="70" height="70" viewBox="0 0 70 70" fill="none" xmlns="http://www.w3.org/2000/svg">
<path d="M35 1.46689C53.5121 1.46689 68.5331 16.5172 68.5331 35C68.5331 53.5122 53.4828 68.5331 35 68.5331C16.4878 68.5331 1.46689 53.4828 1.46689 35C1.46689 16.5172 16.5172 1.46689 35 1.46689ZM35 0C15.6664 0 0 15.6664 0 35C0 54.3336 15.6664 70 35 70C54.3336 70 70 54.3336 70 35C70.0293 15.6664 54.3629 0 35 0Z" fill="#E30613"/>
<path d="M57.0427 32.1146H52.2505C51.7213 32.1146 51.2932 32.5434 51.2932 33.0727C51.2932 33.6019 51.7214 34.0307 52.2505 34.0307H57.0427C57.5719 34.0307 58 33.6019 58 33.0727C58 32.5435 57.5719 32.1146 57.0427 32.1146Z" fill="#E30613"/>
<path d="M52.2503 30.1979C52.3766 30.1979 52.4959 30.1734 52.6069 30.1291L52.6223 30.1235C52.6223 30.1228 52.6238 30.1228 52.6251 30.1221L57.3977 28.2131V28.2124C57.7515 28.0713 57.9999 27.7267 57.9999 27.3232C57.9999 26.794 57.5717 26.3651 57.0426 26.3651C56.9163 26.3651 56.797 26.3896 56.686 26.4339V26.4332L56.6706 26.4402C56.6691 26.4402 56.6691 26.4402 56.6691 26.4402L51.8951 28.3499V28.3506C51.5428 28.4917 51.293 28.8363 51.293 29.2398C51.2931 29.769 51.7211 30.1979 52.2503 30.1979Z" fill="#E30613"/>
<path d="M47.4596 28.0041V19.657C47.4596 19.1278 47.0301 18.699 46.5009 18.699C45.9731 18.699 45.5436 19.1278 45.5436 19.657V20.2325L28.2951 25.4065H17.7533C17.2256 25.4065 16.7961 25.8361 16.7961 26.3652V28.2813H13.9213C13.3921 28.2813 12.9626 28.7108 12.9626 29.24V31.156C12.4334 31.156 12.0039 31.5856 12.0039 32.1147V34.0308C12.0039 34.56 12.4334 34.9895 12.9626 34.9895V36.9062C12.9626 37.4355 13.3921 37.8635 13.9213 37.8635H16.7961V39.781C16.7961 40.3103 17.2256 40.7383 17.7533 40.7383H19.1093L21.5869 51.3011H30.2111L27.8206 44.4384C28.1041 44.2728 28.295 43.9668 28.295 43.613C28.295 43.2789 28.1238 42.9842 27.8627 42.813L28.7947 40.8884L45.5435 45.9136V46.4877C45.5435 47.0183 45.973 47.4465 46.5008 47.4465C47.03 47.4465 47.4595 47.0183 47.4595 46.4877V37.9617C49.1777 36.968 50.3343 35.1109 50.3343 32.9829C50.3344 30.8549 49.1778 28.9979 47.4596 28.0041ZM14.8786 35.9475V30.198H16.7961V35.9475H14.8786ZM18.712 27.3233H28.295V38.8222H18.712V27.3233ZM23.107 49.385L21.0787 40.7383H26.737L25.7853 42.7091L25.4385 43.425L25.6997 44.1746L27.5146 49.385H23.107ZM30.2111 39.3121V37.9604L30.2293 37.9252H30.2111V26.8326L45.5435 22.2334V43.9134L30.2111 39.3121ZM47.4596 35.5138V30.4513C48.0563 31.1272 48.4184 32.0129 48.4184 32.983C48.4184 33.9522 48.0562 34.8386 47.4596 35.5138Z" fill="#E30613"/>
<path d="M57.3978 37.9337L52.6253 36.0232C52.6238 36.0225 52.6225 36.0225 52.6225 36.0218L52.607 36.0162V36.017C52.4962 35.9728 52.3769 35.9475 52.2505 35.9475C51.7213 35.9475 51.2932 36.3763 51.2932 36.9062C51.2932 37.309 51.543 37.6529 51.8954 37.7961L56.6679 39.7052C56.6694 39.7052 56.6707 39.7052 56.6722 39.7066L56.6862 39.7122V39.7108C56.797 39.7557 56.9163 39.7809 57.0427 39.7809C57.5719 39.7809 58 39.3513 58 38.8221C58 38.4193 57.7515 38.0741 57.3978 37.9337Z" fill="#E30613"/>
</svg>
