<svg width="38" height="38" viewBox="0 0 38 38" fill="none" xmlns="http://www.w3.org/2000/svg">
<path fill-rule="evenodd" clip-rule="evenodd" d="M20.297 38H2.09731C0.938657 38 0 37.0608 0 35.9026V2.0973C0 0.938802 0.938804 0 2.09731 0H35.9028C37.061 0 38 0.938802 38 2.0973V35.9026C38 37.0609 37.0609 38 35.9028 38H26.2195V23.2843H31.1588L31.8984 17.5493H26.2195V13.8879C26.2195 12.2275 26.6805 11.096 29.0615 11.096L32.0984 11.0947V5.96528C31.5732 5.89539 29.7705 5.73925 27.6731 5.73925C23.2947 5.73925 20.297 8.41188 20.297 13.32V17.5493H15.345V23.2843H20.297V38Z" fill="#4460A0"/>
</svg>
