<svg width="69" height="47" viewBox="0 0 69 47" fill="none" xmlns="http://www.w3.org/2000/svg">
<path d="M67.519 10.1284C67.519 10.1284 66.8512 5.52814 64.808 3.50246C62.2173 0.842944 59.3061 0.829875 57.9774 0.673048C48.4291 0 34.1134 0 34.1134 0H34.0867C34.0867 0 19.7709 0 10.2227 0.673048C8.89391 0.829875 5.98269 0.842944 3.39197 3.50246C1.34878 5.52814 0.681065 10.1284 0.681065 10.1284C0.681065 10.1284 0 15.5258 0 20.9298V25.994C0 31.398 0.681065 36.7955 0.681065 36.7955C0.681065 36.7955 1.34878 41.3957 3.39197 43.4214C5.98937 46.0809 9.3947 45.996 10.9104 46.277C16.3656 46.7866 34.1 46.95 34.1 46.95C34.1 46.95 48.4291 46.9304 57.9774 46.2508C59.3128 46.094 62.2173 46.0809 64.808 43.4214C66.8512 41.3957 67.519 36.7955 67.519 36.7955C67.519 36.7955 68.2 31.3915 68.2 25.994V20.9298C68.2 15.5258 67.519 10.1284 67.519 10.1284ZM27.0557 32.1299V13.376L45.4845 22.7856L27.0557 32.1299Z" fill="#282928" fill-opacity="0.8"/>
<path d="M27.0557 32.1297L45.4845 22.7855L27.0557 13.376V32.1297Z" fill="white"/>
<path opacity="0.12" fill-rule="evenodd" clip-rule="evenodd" d="M27.0557 13.376L43.2143 23.9355L45.4845 22.7855L27.0557 13.376Z" fill="black"/>
</svg>
