<svg width="90" height="90" viewBox="0 0 90 90" fill="none" xmlns="http://www.w3.org/2000/svg">
<path fill-rule="evenodd" clip-rule="evenodd" d="M45 90C69.8528 90 90 69.8528 90 45C90 20.1472 69.8528 0 45 0C20.1472 0 0 20.1472 0 45C0 69.8528 20.1472 90 45 90ZM45 85C67.0914 85 85 67.0914 85 45C85 22.9086 67.0914 5 45 5C22.9086 5 5 22.9086 5 45C5 67.0914 22.9086 85 45 85Z" fill="#27AE60"/>
<path fill-rule="evenodd" clip-rule="evenodd" d="M59.5433 33.7276L42.0193 51.3486L31.5479 40.8185C31.3041 40.5644 31.0124 40.3618 30.6898 40.2223C30.3672 40.0828 30.0201 40.0093 29.669 40.0061C29.3178 40.0029 28.9695 40.0699 28.6444 40.2035C28.3194 40.337 28.0239 40.5343 27.7755 40.7838C27.5271 41.0334 27.3306 41.3303 27.1975 41.657C27.0643 41.9837 26.9972 42.3338 27.0001 42.6868C27.003 43.0399 27.0758 43.3889 27.2142 43.7134C27.3527 44.0379 27.554 44.3314 27.8065 44.5769L40.1486 56.986C40.6446 57.4845 41.3172 57.7643 42.0185 57.7643C42.7198 57.7643 43.3923 57.4845 43.8883 56.986L63.283 37.486C63.7561 36.9828 64.0154 36.3138 64.0056 35.6215C63.9959 34.9291 63.718 34.2679 63.2309 33.7784C62.7438 33.2889 62.086 33.0097 61.3973 33.0002C60.7087 32.9908 60.0436 33.2516 59.5433 33.7276Z" fill="#27AE60"/>
</svg>
