<svg width="70" height="70" viewBox="0 0 70 70" fill="none" xmlns="http://www.w3.org/2000/svg">
<path d="M35 1.46689C53.5121 1.46689 68.5331 16.5172 68.5331 35C68.5331 53.4828 53.4828 68.5331 35 68.5331C16.4878 68.5331 1.46689 53.4828 1.46689 35C1.46689 16.5172 16.5172 1.46689 35 1.46689ZM35 0C15.6664 0 0 15.6664 0 35C0 54.3336 15.6664 70 35 70C54.3336 70 70 54.3336 70 35C70.0293 15.6664 54.3336 0 35 0Z" fill="#E30613"/>
<path d="M34.941 32.9754C35.0877 33.1221 35.2637 33.2394 35.4691 33.2394C35.6745 33.2394 35.9092 33.1807 36.0559 33.034L50.226 21.0642C50.3727 20.9175 50.4901 20.7415 50.4901 20.5361C50.4901 20.3308 50.4314 20.0961 50.2847 19.9494C46.4121 15.4314 41.014 13.0844 35.4691 13.0844C31.0098 13.0844 26.5504 14.5806 22.9125 17.6904C22.5898 17.9544 22.5311 18.4825 22.7952 18.8052L34.941 32.9754ZM24.6435 18.3945C26.9025 16.6636 29.4255 15.5487 32.0366 15.0206L26.081 20.0667L24.6435 18.3945ZM38.6083 14.962C39.3124 15.0793 40.0458 15.2847 40.7499 15.49L29.9536 24.6141L29.1028 23.5872L38.3149 15.6954C38.6083 15.49 38.6669 15.226 38.6083 14.962ZM32.9167 28.076L44.9452 17.8957C45.0626 17.7784 45.1506 17.6317 45.2093 17.4557C45.6493 17.7197 46.0601 18.0424 46.5001 18.3651L33.8262 29.1028L32.9167 28.076ZM31.8899 26.8437L30.9804 25.8169L42.3635 16.2235C42.4222 16.1648 42.4808 16.1061 42.5102 16.0768C42.9796 16.2821 43.4197 16.5168 43.9184 16.7222L31.8899 26.8437ZM48.5831 20.3601L35.6451 31.3031L34.853 30.3349L47.615 19.5387L47.6736 19.48C47.9964 19.7147 48.3191 20.0374 48.5831 20.3601ZM36.9947 14.7273L28.0467 22.3551L27.1959 21.3283L34.0609 15.49C34.2663 15.2847 34.3836 15.0206 34.3249 14.7273C34.765 14.6686 35.1171 14.6686 35.5571 14.6686C36.0265 14.6686 36.4959 14.6686 36.9947 14.7273Z" fill="#E30613"/>
<path d="M34.4717 35.3225L21.3283 19.7735C21.0643 19.4508 20.5362 19.3921 20.2135 19.6561C15.2848 23.8514 12.7617 29.807 12.7617 35.7919C12.7617 40.6327 14.434 45.5028 17.8078 49.4634C22.0031 54.3921 27.9587 56.9151 33.9436 56.9151C38.7843 56.9151 43.6544 55.2429 47.615 51.869C47.7617 51.7224 47.8791 51.5463 47.8791 51.341C47.8791 51.1356 47.8204 50.9009 47.6737 50.7542L34.4717 35.3225ZM18.952 48.4659L18.3652 48.9939L18.952 48.4659C15.8422 44.7693 14.2873 40.31 14.2873 35.7919C14.2873 30.4818 16.4289 25.2303 20.6242 21.4164L33.2982 36.32L45.9428 51.2236C42.3929 54.0107 38.1682 55.3602 33.9143 55.3602C28.3401 55.3896 22.8246 53.0426 18.952 48.4659Z" fill="#E30613"/>
<path d="M52.6022 22.5602C52.4556 22.4135 52.2795 22.2961 52.0742 22.2961C51.8688 22.2961 51.6341 22.3548 51.4874 22.5015L37.3173 34.53C37.1706 34.6767 37.0532 34.8527 37.0532 35.0581C37.0532 35.2634 37.1119 35.4981 37.2586 35.6448L49.2871 49.815C49.4338 49.9617 49.6098 50.079 49.8152 50.079C50.0205 50.079 50.2552 50.0203 50.4019 49.8737C54.9199 46.0011 57.267 40.6029 57.267 35.0581C57.2083 30.6574 55.7121 26.1981 52.6022 22.5602ZM49.9032 48.1427L38.9015 35.2048L51.8688 24.2031C54.3919 27.4302 55.5654 31.2735 55.5654 35.0874C55.5947 39.9575 53.6584 44.6515 49.9032 48.1427Z" fill="#E30613"/>
</svg>
