<svg width="70" height="70" viewBox="0 0 70 70" fill="none" xmlns="http://www.w3.org/2000/svg">
<path d="M35 1.46689C53.5121 1.46689 68.5331 16.5172 68.5331 35C68.5331 53.4828 53.4828 68.5331 35 68.5331C16.4878 68.5331 1.46689 53.4828 1.46689 35C1.46689 16.5172 16.5172 1.46689 35 1.46689ZM35 0C15.6664 0 0 15.6664 0 35C0 54.3336 15.6664 70 35 70C54.3336 70 70 54.3336 70 35C70.0293 15.6664 54.3336 0 35 0Z" fill="#E30613"/>
<path fill-rule="evenodd" clip-rule="evenodd" d="M15.4611 20.2433C13.5542 20.2433 11.9993 21.7982 11.9993 23.7051V42.628C11.9993 44.535 13.5542 46.0899 15.4611 46.0899H18.835C19.4217 48.1435 21.2993 49.6691 23.529 49.6691C25.7587 49.6691 27.6363 48.1435 28.2231 46.0899H47.2926C47.8794 48.1435 49.757 49.6691 51.9867 49.6691C54.2163 49.6691 56.0939 48.1435 56.6807 46.0899H57.1208C58.6757 46.0899 59.9665 44.799 59.9665 43.2441V36.3497C59.9959 36.203 59.9665 36.027 59.9372 35.8803C59.9372 35.851 59.9372 35.851 59.9079 35.8217C59.8492 35.675 59.7905 35.5576 59.6732 35.4402L53.8349 27.3724C53.6296 27.079 53.3069 26.9323 52.9548 26.9323H45.8844V23.7344C45.8844 21.8275 44.3295 20.2726 42.4225 20.2726L15.4611 20.2433ZM15.4611 22.4436H42.4812C43.1853 22.4436 43.7721 23.001 43.7721 23.7344V43.9482H28.3697C27.959 41.6598 25.964 39.9289 23.5583 39.9289C21.182 39.9289 19.1577 41.6598 18.7469 43.9482H15.4611C14.757 43.9482 14.1703 43.3908 14.1703 42.6574V23.7344C14.1703 23.001 14.7277 22.4436 15.4611 22.4436ZM45.9137 29.1033H52.4267L57.7956 36.5551V43.2734C57.7956 43.6548 57.5022 43.9482 57.1208 43.9482H56.7981C56.3873 41.6598 54.3924 39.9289 51.9867 39.9289C49.581 39.9289 47.586 41.6598 47.1753 43.9482H45.9137V29.1033ZM23.529 42.0999C25.0252 42.0999 26.2281 43.3028 26.2281 44.799V44.8577C26.1988 46.3246 25.0252 47.4981 23.529 47.4981C22.0328 47.4981 20.8299 46.2952 20.8299 44.799C20.8299 43.3028 22.0328 42.0999 23.529 42.0999ZM52.016 42.0999C53.5122 42.0999 54.7151 43.3028 54.7151 44.799C54.7151 46.2952 53.5122 47.4981 52.016 47.4981C50.5198 47.4981 49.3169 46.2952 49.3169 44.799C49.3169 43.3028 50.4904 42.0999 52.016 42.0999Z" fill="#E30613"/>
<path fill-rule="evenodd" clip-rule="evenodd" d="M29.7193 27.9003C29.1032 27.9003 28.6338 28.3697 28.6045 28.9858C28.6045 29.6018 29.0739 30.0713 29.69 30.1006H29.7193H40.4276C41.0437 30.1006 41.5131 29.6312 41.5425 29.0151C41.5718 28.399 41.0731 27.9296 40.457 27.9003H40.4276H29.7193Z" fill="#E30613"/>
<path fill-rule="evenodd" clip-rule="evenodd" d="M24.8197 32.8C24.2036 32.8 23.7342 33.2694 23.7048 33.8855C23.6755 34.5016 24.1743 34.971 24.7904 35.0004H24.8197H40.4274C41.0435 35.0004 41.5129 34.5309 41.5422 33.9149C41.5422 33.2988 41.0728 32.8294 40.4567 32.8H40.4274H24.8197Z" fill="#E30613"/>
</svg>
