<svg width="70" height="70" viewBox="0 0 70 70" fill="none" xmlns="http://www.w3.org/2000/svg">
<path d="M35 1.46689C53.5121 1.46689 68.5331 16.5172 68.5331 35C68.5331 53.4828 53.5121 68.5625 35 68.5625C16.4878 68.5625 1.46689 53.5122 1.46689 35.0293C1.46689 16.5465 16.5172 1.46689 35 1.46689ZM35 0C15.6664 0 0 15.6664 0 35C0 54.3336 15.6664 70 35 70C54.3336 70 70 54.3336 70 35C70.0293 15.6664 54.3629 0 35 0Z" fill="#E30613"/>
<path d="M37.0245 37.4354C30.5115 37.4354 25.2307 32.1546 25.2307 25.6416C25.2307 19.1286 30.5115 13.8478 37.0245 13.8478C43.5375 13.8478 48.8183 19.1286 48.8183 25.6416C48.8183 32.1252 43.5375 37.406 37.0245 37.4354ZM37.0245 15.52C31.4503 15.52 26.9323 20.0381 26.9323 25.6122C26.9323 31.1864 31.4503 35.7044 37.0245 35.7044C42.5987 35.7044 47.1167 31.1864 47.1167 25.6122C47.1167 20.0381 42.5987 15.52 37.0245 15.52Z" fill="#E30613"/>
<path d="M55.6539 40.5158C54.6564 39.313 52.9842 38.9903 51.6053 39.753L50.6665 38.6089C49.8157 37.6114 48.3781 37.406 47.2927 38.1101L46.3832 38.7262L45.8258 38.0808C44.975 37.0833 43.5374 36.8779 42.4519 37.582L36.2323 41.6307L29.3086 38.7849C27.1376 37.9048 24.6439 38.2568 22.7956 39.7237L13.9649 46.7354C13.5835 46.9995 13.4955 47.5276 13.7596 47.909C14.0236 48.2903 14.5517 48.3784 14.9331 48.1143C14.9624 48.085 14.9917 48.085 15.0211 48.0556L23.8517 41.0439C25.2306 39.9584 27.0789 39.6944 28.6925 40.3691L40.9263 45.3859C41.7185 45.738 42.0705 46.6768 41.7185 47.4689C41.3958 48.2317 40.5156 48.5837 39.7528 48.3197L31.4796 45.0925C31.0395 44.8872 30.5408 45.0925 30.3647 45.5033C30.1594 45.9433 30.3647 46.4421 30.7755 46.6181C30.8048 46.6181 30.8341 46.6474 30.8635 46.6474L39.1074 49.9039C39.4888 50.0506 39.8995 50.1386 40.3102 50.1386C42.0705 50.1386 43.5081 48.7597 43.5961 46.9995L43.6841 46.9408L52.3094 41.308C53.0429 40.8385 54.011 41.0733 54.4511 41.8067C54.8911 42.5108 54.7151 43.3909 54.0403 43.8897L42.3639 52.1629C40.8677 53.2191 38.9607 53.5712 37.2004 53.0431L27.3429 50.256C25.524 49.7572 23.5877 50.1386 22.1208 51.3415L19.4804 53.5125C19.1284 53.8059 19.0697 54.3633 19.3924 54.7153C19.5391 54.8914 19.7738 55.0087 20.0378 55.0087C20.2432 55.0087 20.4192 54.95 20.5659 54.8327L23.2357 52.691C24.2625 51.8402 25.6414 51.5762 26.9029 51.9282L36.731 54.686C38.99 55.3314 41.4251 54.8914 43.332 53.5418L55.0378 45.2685C56.5047 44.2417 56.8568 42.1881 55.8299 40.7212C55.7419 40.6625 55.7126 40.6038 55.6539 40.5158ZM43.332 38.9903C43.7134 38.7556 44.2122 38.8142 44.4762 39.1663L44.887 39.665L39.7235 43.0682L38.1393 42.3934L43.332 38.9903ZM43.156 45.2392C42.804 44.6231 42.2759 44.1537 41.6598 43.8603L48.2315 39.5477C48.6129 39.313 49.1116 39.3717 49.3756 39.7237L50.1677 40.6919L43.156 45.2392Z" fill="#E30613"/>
<path d="M37.1124 21.945C37.9339 21.9744 38.7553 22.0917 39.5768 22.2971C40.0169 22.4144 40.4863 22.1504 40.6329 21.7103C40.7503 21.2702 40.4863 20.8008 40.0462 20.6542C39.3714 20.4781 38.6673 20.3608 37.9925 20.3021V19.1579C37.9925 18.6885 37.6112 18.3071 37.1418 18.3071C36.6724 18.3071 36.291 18.6885 36.291 19.1579V20.3314C34.0026 20.6542 33.7386 22.2091 33.7386 22.9132C33.7386 24.6734 35.5575 25.4069 36.643 25.8763L36.8484 25.9643L37.1711 26.0817C38.2859 26.5217 38.7553 26.7858 38.7553 27.5779C38.7553 28.37 38.2273 28.7514 37.2004 28.8101H37.1418H37.0244C36.0563 28.7221 35.0881 28.4873 34.1786 28.1353C33.7386 27.9593 33.2398 28.1353 33.0638 28.5754C32.8878 29.0154 33.0638 29.5142 33.5039 29.6902C33.5332 29.6902 33.5626 29.7195 33.5626 29.7195C34.4427 30.0422 35.3522 30.3063 36.291 30.453V31.5972C36.291 32.0666 36.6724 32.448 37.1418 32.448C37.6112 32.448 37.9925 32.0666 37.9925 31.5972V30.4236C39.5474 30.1303 40.4569 29.1034 40.4569 27.5779C40.4569 25.5829 38.7847 24.9081 37.8165 24.5267L37.3178 24.3214C36.5257 23.9987 35.4695 23.5586 35.4695 22.9425C35.4108 22.5904 35.4108 21.945 37.1124 21.945Z" fill="#E30613"/>
</svg>
