<svg width="70" height="70" viewBox="0 0 70 70" fill="none" xmlns="http://www.w3.org/2000/svg">
<path d="M35 1.46689C53.5121 1.46689 68.5331 16.5172 68.5331 35C68.5331 53.5122 53.4828 68.5331 35 68.5331C16.4878 68.5331 1.46689 53.4828 1.46689 35C1.46689 16.5172 16.5172 1.46689 35 1.46689ZM35 0C15.6664 0 0 15.6664 0 35C0 54.3336 15.6664 70 35 70C54.3336 70 70 54.3336 70 35C70.0293 15.6664 54.3629 0 35 0Z" fill="#E30613"/>
<path d="M48.6418 38.6963H40.0752V40.8966H48.6418V38.6963Z" fill="#E30613"/>
<path d="M50.3141 34.6179H40.0752V36.8183H50.3141V34.6179Z" fill="#E30613"/>
<path d="M44.3585 42.6272H40.0752V44.8275H44.3585V42.6272Z" fill="#E30613"/>
<path d="M41.5714 25.4646C42.3977 25.4646 43.0676 24.7947 43.0676 23.9684C43.0676 23.1421 42.3977 22.4722 41.5714 22.4722C40.7451 22.4722 40.0752 23.1421 40.0752 23.9684C40.0752 24.7947 40.7451 25.4646 41.5714 25.4646Z" fill="#E30613"/>
<path d="M46.2072 25.4646C47.0335 25.4646 47.7034 24.7947 47.7034 23.9684C47.7034 23.1421 47.0335 22.4722 46.2072 22.4722C45.3808 22.4722 44.7109 23.1421 44.7109 23.9684C44.7109 24.7947 45.3808 25.4646 46.2072 25.4646Z" fill="#E30613"/>
<path d="M51.1063 25.4646C51.9327 25.4646 52.6026 24.7947 52.6026 23.9684C52.6026 23.1421 51.9327 22.4722 51.1063 22.4722C50.28 22.4722 49.6101 23.1421 49.6101 23.9684C49.6101 24.7947 50.28 25.4646 51.1063 25.4646Z" fill="#E30613"/>
<path d="M52.1921 20.3601C53.7763 20.3601 55.0378 21.6509 55.0378 23.2058V47.0575C55.0378 48.6417 53.747 49.9032 52.1921 49.9032H17.8668C16.2826 49.9032 15.0211 48.6124 15.0211 47.0575V23.2058C15.0211 21.6216 16.3119 20.3601 17.8668 20.3601H52.1921ZM52.1921 18.8932H17.8668C15.4905 18.8932 13.5542 20.8295 13.5542 23.2058V47.0575C13.5542 49.4338 15.4905 51.3701 17.8668 51.3701H52.1921C54.5684 51.3701 56.5047 49.4338 56.5047 47.0575V23.2058C56.5047 20.8295 54.5684 18.8932 52.1921 18.8932Z" fill="#E30613"/>
<path d="M56.5045 26.9022H13.5247V28.5745H56.5045V26.9022Z" fill="#E30613"/>
<path d="M27.5186 46.6468C31.4235 46.6468 34.5891 43.4813 34.5891 39.5764C34.5891 35.6715 31.4235 32.506 27.5186 32.506C23.6138 32.506 20.4482 35.6715 20.4482 39.5764C20.4482 43.4813 23.6138 46.6468 27.5186 46.6468Z" fill="#E30613"/>
</svg>
