<svg width="70" height="70" viewBox="0 0 70 70" fill="none" xmlns="http://www.w3.org/2000/svg">
<path d="M35 1.46689C53.5122 1.46689 68.5331 16.5172 68.5331 35C68.5331 53.4828 53.4828 68.5331 35 68.5331C16.4879 68.5331 1.46689 53.4828 1.46689 35C1.46689 16.5172 16.4879 1.46689 35 1.46689ZM35 0C15.6664 0 0 15.6664 0 35C0 54.3336 15.6664 70 35 70C54.3336 70 70 54.3336 70 35C70 15.6664 54.3336 0 35 0Z" fill="#E30613"/>
<path d="M49.9314 17.5H34.0768C32.6596 17.5 31.5081 18.6295 31.5081 20.0197V27.55C30.1205 27.8397 28.7919 28.2741 27.4928 28.8533C26.3709 29.3457 25.308 29.867 24.2451 30.4752C22.1194 31.6627 20.6432 33.7191 20.2298 36.065L17.5136 51.4152C17.425 51.9366 17.7793 52.4289 18.3107 52.5448C18.8422 52.6317 19.3441 52.2841 19.4622 51.7628L22.1784 36.4126C22.5032 34.6169 23.6251 33.0819 25.2194 32.184C26.2233 31.6337 27.2271 31.1414 28.29 30.678C29.3233 30.2146 30.4157 29.867 31.5377 29.6064V36.0361C31.3015 35.9492 31.0653 35.8623 30.8291 35.8044C30.2976 35.6596 29.7662 35.9782 29.6186 36.4705C29.471 36.9918 29.7957 37.5132 30.2976 37.658C30.8291 37.7738 31.3015 38.0055 31.7148 38.3241C31.1243 39.2509 30.3272 40.0329 29.4119 40.6411C28.969 40.9597 28.8509 41.539 29.1462 42.0024C29.4414 42.4658 30.0615 42.5527 30.5339 42.263C31.7148 41.481 32.6891 40.4674 33.4272 39.2799L36.6454 34.3273C37.1473 33.5163 38.2397 33.2846 39.0369 33.806C39.8635 34.2983 40.0998 35.3699 39.5683 36.1519L37.1769 39.946C36.2025 41.4521 35.7302 43.2188 35.7892 45.0145C35.8778 47.4473 34.6672 49.7354 32.6301 51.0966L32.3644 51.2704C31.331 51.9655 30.4453 52.8634 29.7662 53.935C29.4709 54.3984 29.6186 54.9776 30.091 55.2672C30.5634 55.5569 31.1539 55.4121 31.4491 54.9487C31.9805 54.1087 32.6596 53.4136 33.4863 52.8634L33.752 52.6896C35.2282 51.7048 36.3797 50.3146 37.0587 48.6927L37.2949 48.9244C38.5054 50.1119 40.4836 50.1409 41.6941 48.9534C42.0484 48.6058 42.3436 48.1714 42.4912 47.679C44.1151 48.0266 45.7389 47.0419 46.0932 45.4489C46.2113 44.8986 46.1818 44.3483 46.0046 43.827L45.9456 43.6822H49.9314C51.3486 43.6822 52.5 42.5527 52.5 41.1625V20.0197C52.4705 18.6295 51.3486 17.5 49.9314 17.5ZM41.2512 37.1367C42.2846 35.3989 41.6941 33.1688 39.9226 32.1551C38.2397 31.1704 36.0549 31.6627 34.9625 33.2557L33.4567 35.5727V20.0197C33.4567 19.7012 33.7225 19.4405 34.0472 19.4405H45.6208V41.7127H38.3873C38.5054 41.4521 38.653 41.1914 38.8007 40.9307L41.2512 37.1367ZM40.2179 47.6211C39.7455 47.9976 39.0959 47.9397 38.6826 47.5342L37.6492 46.4916C37.7378 45.9703 37.7673 45.4489 37.7378 44.9276C37.7378 44.4932 37.7673 44.0877 37.8263 43.6532H38.9188C38.9188 43.6532 38.9188 43.6822 38.9483 43.7112L40.4836 46.173C40.7788 46.6364 40.6607 47.2736 40.2179 47.6211ZM44.1151 44.4063C44.2922 44.9566 43.997 45.5358 43.4655 45.7096C43.0227 45.8544 42.4912 45.6806 42.255 45.2751C42.2255 45.2172 42.196 45.1593 42.1664 45.1014L41.2217 43.5953H43.8494L44.1151 44.4063ZM50.5219 41.1335C50.5219 41.4521 50.2562 41.7127 49.9314 41.7127H47.6285V19.4405H49.9314C50.2562 19.4405 50.5219 19.7012 50.5219 20.0197V41.1335Z" fill="#E30613"/>
</svg>
