<svg width="70" height="70" viewBox="0 0 70 70" fill="none" xmlns="http://www.w3.org/2000/svg">
<path d="M35 1.46689C53.5122 1.46689 68.5331 16.5172 68.5331 35C68.5331 53.4828 53.4828 68.5625 35 68.5625C16.4879 68.5625 1.46689 53.5122 1.46689 35.0293C1.46689 16.5465 16.4879 1.46689 35 1.46689ZM35 0C15.6664 0 0 15.6664 0 35C0 54.3336 15.6664 70 35 70C54.3336 70 70 54.3336 70 35C70 15.6957 54.3336 0 35 0Z" fill="#E30613"/>
<path d="M45.591 48.114C44.5935 48.114 43.6547 47.6152 43.1266 47.0578C42.7745 46.7058 42.7745 46.119 43.1266 45.7376C43.4786 45.3856 44.0654 45.3856 44.4468 45.7376C44.4468 45.7376 44.7695 46.0603 45.2389 46.1777C45.5616 46.2657 46.0604 46.3244 46.6765 45.7376C47.2926 45.1215 47.2339 44.6228 47.1165 44.3001C46.9698 43.86 46.6765 43.5079 46.6471 43.5079C46.2951 43.1559 46.2951 42.5691 46.6471 42.1877C46.9992 41.8357 47.5859 41.8357 47.9673 42.1877C48.9355 43.1559 49.7276 45.2389 47.9673 47.0285C47.2045 47.8206 46.3831 48.114 45.591 48.114Z" fill="#E30613"/>
<path d="M40.3393 49.8742C39.3418 49.8742 38.403 49.3755 37.8749 48.8181C37.5228 48.466 37.5228 47.8793 37.8749 47.4979C38.2269 47.1458 38.8137 47.1458 39.1951 47.4979C39.1951 47.4979 39.5178 47.8206 39.9872 47.9379C40.3099 48.026 40.8087 48.0846 41.4248 47.4979C42.0408 46.8818 41.9822 46.383 41.8648 46.0603C41.7181 45.6203 41.4247 45.2682 41.3954 45.2682C41.0434 44.9162 41.0434 44.3294 41.3954 43.948C41.7475 43.5959 42.3342 43.5959 42.7156 43.948C43.6838 44.9161 44.4759 46.9991 42.7156 48.7887C41.9235 49.5809 41.102 49.8742 40.3393 49.8742Z" fill="#E30613"/>
<path d="M35.088 51.5755C34.0905 51.5755 33.181 51.1061 32.5942 50.578L32.5649 50.5487L30.8046 48.7884C30.4526 48.4364 30.4526 47.8496 30.8046 47.4682C30.8046 47.4682 31.1274 47.1455 31.2447 46.6761C31.3327 46.3534 31.3914 45.8547 30.8046 45.2386C30.1886 44.6225 29.6898 44.6811 29.3671 44.7985C28.927 44.9452 28.575 45.2386 28.575 45.2679C28.2229 45.62 27.6362 45.62 27.2548 45.2679C26.9027 44.9159 26.9027 44.3291 27.2548 43.9477C28.2229 42.9795 30.3059 42.1874 32.0955 43.9477C33.5037 45.3559 33.2984 46.9401 32.6529 48.0256L33.8264 49.1992C33.8851 49.2578 34.2078 49.5219 34.6479 49.6392C35.176 49.7859 35.616 49.6686 36.0561 49.2285C36.4962 48.7884 36.6429 48.319 36.4668 47.7616C36.3202 47.3215 36.0268 46.9695 36.0268 46.9695C35.6747 46.5881 35.7041 46.0013 36.0854 45.6493C36.4668 45.2972 37.0536 45.3266 37.4057 45.708C38.3151 46.7054 39.0779 48.8178 37.3763 50.5194C36.6722 51.3115 35.8507 51.5755 35.088 51.5755Z" fill="#E30613"/>
<path d="M29.6311 49.8743C28.8684 49.8743 28.0469 49.5809 27.2841 48.8182C26.316 47.85 25.9933 46.6472 26.404 45.4443C26.6974 44.5935 27.2254 44.0361 27.2841 43.9774C27.6362 43.6254 28.2229 43.6254 28.6043 43.9774C28.9564 44.3295 28.9564 44.9162 28.6043 45.2976C28.6043 45.2976 28.2816 45.6203 28.1642 46.0897C28.0762 46.4125 28.0176 46.9112 28.6043 47.5273C29.2204 48.1434 29.7191 48.0847 30.0419 47.9674C30.4819 47.8207 30.834 47.5273 30.834 47.4979C31.186 47.1459 31.7728 47.1459 32.1542 47.4979C32.5356 47.85 32.5062 48.4368 32.1542 48.8182C31.5674 49.3756 30.658 49.8743 29.6311 49.8743Z" fill="#E30613"/>
<path d="M49.1115 44.5933C48.114 44.5933 47.1752 44.0946 46.6471 43.5372C46.295 43.1851 46.295 42.5984 46.6471 42.217C46.9991 41.8649 47.5859 41.8649 47.9379 42.217C47.9673 42.2463 48.29 42.5397 48.7301 42.6864C49.0528 42.7744 49.5515 42.8331 50.1676 42.2463C50.7837 41.6302 50.725 41.1315 50.6077 40.8088C50.461 40.3687 50.1676 40.0167 50.1383 40.0167L48.4074 38.2857L48.378 38.2564L39.87 29.7484H33.5917L32.0955 31.2446C30.2766 33.0636 28.6337 33.797 27.0788 33.4743C25.6999 33.2103 24.7024 32.2128 23.7343 31.2446C23.5582 31.0686 23.4702 30.8339 23.4702 30.5992C23.4702 30.3645 23.5582 30.1298 23.7343 29.9538C23.7636 29.9244 25.5532 28.1642 29.0151 24.7023C32.3889 21.3285 39.694 22.2673 41.6596 22.59L44.8281 19.4215C45.0042 19.2455 45.2389 19.1575 45.4736 19.1575C45.7083 19.1575 45.943 19.2455 46.119 19.4215L54.9203 28.2228C55.2724 28.5749 55.2724 29.1617 54.9203 29.5431L51.6345 32.8289L50.1383 37.3469L51.4878 38.6964C51.5465 38.7551 52.1039 39.3125 52.368 40.1633C52.7787 41.3662 52.456 42.569 51.4878 43.5372C50.725 44.3 49.9036 44.5933 49.1115 44.5933ZM33.2397 27.8708H40.2808C40.5155 27.8708 40.7502 27.9588 40.9262 28.1348L48.6714 35.88L49.9623 32.0368C50.0209 31.8901 50.0796 31.7727 50.1969 31.6847L53.0721 28.8096L45.5322 21.3285L42.6571 24.2036C42.4518 24.4089 42.1291 24.5263 41.8357 24.4676C41.7477 24.4383 33.5037 22.854 30.3646 25.9932C28.1056 28.2522 26.5507 29.8071 25.7292 30.5992C26.2866 31.1273 26.8734 31.5674 27.4601 31.6847C28.3696 31.8607 29.4551 31.3033 30.8047 29.9538L32.5649 28.1935C32.741 27.9881 32.9757 27.8708 33.2397 27.8708Z" fill="#E30613"/>
<path d="M20.8592 44.5933C20.0964 44.5933 19.2749 44.2999 18.5121 43.5371C16.7519 41.7768 17.544 39.6645 18.5121 38.6964L22.0327 35.1758C23.0008 34.2077 25.0838 33.4156 26.8734 35.1758C28.6337 36.9361 27.8416 39.0484 26.8734 40.0166C26.5214 40.3686 25.9346 40.3686 25.5532 40.0166C25.2012 39.6645 25.2012 39.0778 25.5532 38.6964C25.5532 38.6964 25.8759 38.3737 25.9933 37.9043C26.0813 37.5815 26.14 37.0828 25.5532 36.4667C24.9371 35.8506 24.4384 35.9093 24.1157 36.0266C23.6756 36.1733 23.3235 36.4667 23.3235 36.496L19.803 40.0166C19.803 40.0166 19.4803 40.3393 19.3629 40.8087C19.2749 41.1314 19.2163 41.6301 19.803 42.2462C20.4191 42.8623 20.9178 42.8037 21.2406 42.6863C21.6806 42.5396 22.0327 42.2463 22.0327 42.2169C22.3847 41.8649 22.9715 41.8649 23.3529 42.2169C23.7343 42.569 23.7049 43.1557 23.3529 43.5371C22.7661 44.0945 21.8567 44.5933 20.8592 44.5933Z" fill="#E30613"/>
<path d="M24.3504 48.1135C23.4996 48.1135 22.6781 47.7614 22.0034 47.0573C21.0352 46.0892 20.7125 44.8863 21.1232 43.6835C21.4166 42.8327 21.9447 42.2753 22.0034 42.2166L25.5239 38.6961C25.6412 38.5787 26.6094 37.6399 28.0176 37.6399C28.8684 37.6399 29.6899 37.9919 30.3646 38.6961C32.1249 40.4563 31.3328 42.5686 30.3646 43.5368L26.8441 47.0573C26.7267 47.1747 25.7586 48.1135 24.3504 48.1135ZM23.3236 43.5368C23.3236 43.5368 23.0008 43.8595 22.8835 44.3289C22.7955 44.6516 22.7368 45.1504 23.3236 45.7665C23.6756 46.1185 23.9983 46.2652 24.3504 46.2652C24.9665 46.2652 25.5239 45.7665 25.5239 45.7665L29.0444 42.2459C29.0444 42.2459 29.3671 41.9232 29.4845 41.4538C29.5725 41.1311 29.6312 40.6324 29.0444 40.0163C28.6924 39.6642 28.3697 39.5175 28.0176 39.5175C27.4015 39.5175 26.8441 40.0163 26.8441 40.0163L23.3236 43.5368Z" fill="#E30613"/>
<path d="M38.4913 49.0822C38.2566 49.0822 38.0219 48.9942 37.8459 48.8182L34.3253 45.2976C33.9733 44.9456 33.9733 44.3588 34.3253 43.9774C34.6774 43.6254 35.2641 43.6254 35.6455 43.9774L39.1661 47.4979C39.5181 47.85 39.5181 48.4368 39.1661 48.8182C38.99 48.9942 38.7553 49.0822 38.4913 49.0822Z" fill="#E30613"/>
<path d="M43.7721 47.322C43.5374 47.322 43.3027 47.2339 43.1266 47.0579L37.8458 41.7771C37.4938 41.4251 37.4938 40.8383 37.8458 40.4569C38.1979 40.1049 38.7846 40.1049 39.166 40.4569L44.4468 45.7377C44.7989 46.0898 44.7989 46.6765 44.4468 47.0579C44.2708 47.2339 44.0068 47.322 43.7721 47.322Z" fill="#E30613"/>
<path d="M47.2926 43.8015C47.0579 43.8015 46.8232 43.7134 46.6471 43.5374L41.3663 38.2566C41.0143 37.9045 41.0143 37.3178 41.3663 36.9364C41.7184 36.5843 42.3051 36.5843 42.6865 36.9364L47.9673 42.2172C48.3194 42.5693 48.3194 43.156 47.9673 43.5374C47.7913 43.7134 47.5273 43.8015 47.2926 43.8015Z" fill="#E30613"/>
<path d="M20.9179 38.5204C20.5365 38.5204 20.1551 38.2857 20.0377 37.875L18.3361 32.7996L14.9623 29.4257C14.7863 29.2497 14.6982 29.015 14.6982 28.7803C14.6982 28.5456 14.7863 28.3109 14.9623 28.1348L23.7636 19.3335C24.1157 18.9814 24.7024 18.9814 25.0838 19.3335L28.2523 22.502C29.3671 22.326 32.1836 21.9446 35.0293 22.2379C35.5281 22.2966 35.9095 22.7367 35.8508 23.2648C35.7921 23.7635 35.3521 24.1449 34.824 24.0862C31.5088 23.7342 28.135 24.4089 28.1056 24.4089C27.8122 24.4676 27.4895 24.3796 27.2548 24.1449L24.3797 21.2698L16.8692 28.7509L19.7443 31.626C19.8324 31.7141 19.9204 31.8607 19.979 31.9781L21.7393 37.2589C21.9153 37.7576 21.6513 38.2564 21.1526 38.4324C21.0939 38.5204 21.0059 38.5204 20.9179 38.5204Z" fill="#E30613"/>
</svg>
